<?xml version="1.0" encoding="UTF-8" standalone="no"?>
<!DOCTYPE svg PUBLIC "-//W3C//DTD SVG 1.1//EN"
 "http://www.w3.org/Graphics/SVG/1.1/DTD/svg11.dtd">
<!-- Generated by graphviz version 2.40.1 (20161225.0304)
 -->
<!-- Title: G Pages: 1 -->
<svg width="725pt" height="2520pt"
 viewBox="0.00 0.00 724.67 2520.00" xmlns="http://www.w3.org/2000/svg" xmlns:xlink="http://www.w3.org/1999/xlink">
<g id="graph0" class="graph" transform="scale(1 1) rotate(0) translate(4 2516)">
<title>G</title>
<polygon fill="#ffffff" stroke="transparent" points="-4,4 -4,-2516 720.6667,-2516 720.6667,4 -4,4"/>
<g id="clust1" class="cluster">
<title>cluster_Global</title>
<path fill="none" stroke="#c0c0c0" d="M151.8904,-260C151.8904,-260 696.6667,-260 696.6667,-260 702.6667,-260 708.6667,-266 708.6667,-272 708.6667,-272 708.6667,-2492 708.6667,-2492 708.6667,-2498 702.6667,-2504 696.6667,-2504 696.6667,-2504 151.8904,-2504 151.8904,-2504 145.8904,-2504 139.8904,-2498 139.8904,-2492 139.8904,-2492 139.8904,-272 139.8904,-272 139.8904,-266 145.8904,-260 151.8904,-260"/>
<text text-anchor="middle" x="424.2785" y="-2491.2" font-family="Times,serif" font-size="11.00" fill="#c0c0c0">Global</text>
</g>
<g id="clust2" class="cluster">
<title>cluster_\App</title>
<path fill="none" stroke="#c0c0c0" d="M224.6794,-268C224.6794,-268 688.6667,-268 688.6667,-268 694.6667,-268 700.6667,-274 700.6667,-280 700.6667,-280 700.6667,-2016 700.6667,-2016 700.6667,-2022 694.6667,-2028 688.6667,-2028 688.6667,-2028 224.6794,-2028 224.6794,-2028 218.6794,-2028 212.6794,-2022 212.6794,-2016 212.6794,-2016 212.6794,-280 212.6794,-280 212.6794,-274 218.6794,-268 224.6794,-268"/>
<text text-anchor="middle" x="456.673" y="-2015.2" font-family="Times,serif" font-size="11.00" fill="#c0c0c0">App</text>
</g>
<g id="clust3" class="cluster">
<title>cluster_\App\Controller</title>
<path fill="none" stroke="#c0c0c0" d="M523.6667,-950C523.6667,-950 680.6667,-950 680.6667,-950 686.6667,-950 692.6667,-956 692.6667,-962 692.6667,-962 692.6667,-1280 692.6667,-1280 692.6667,-1286 686.6667,-1292 680.6667,-1292 680.6667,-1292 523.6667,-1292 523.6667,-1292 517.6667,-1292 511.6667,-1286 511.6667,-1280 511.6667,-1280 511.6667,-962 511.6667,-962 511.6667,-956 517.6667,-950 523.6667,-950"/>
<text text-anchor="middle" x="602.1667" y="-1279.2" font-family="Times,serif" font-size="11.00" fill="#c0c0c0">Controller</text>
</g>
<g id="clust4" class="cluster">
<title>cluster_\App\DataFixtures</title>
<path fill="none" stroke="#c0c0c0" d="M232.6794,-1300C232.6794,-1300 660.6667,-1300 660.6667,-1300 666.6667,-1300 672.6667,-1306 672.6667,-1312 672.6667,-1312 672.6667,-1576 672.6667,-1576 672.6667,-1582 666.6667,-1588 660.6667,-1588 660.6667,-1588 232.6794,-1588 232.6794,-1588 226.6794,-1588 220.6794,-1582 220.6794,-1576 220.6794,-1576 220.6794,-1312 220.6794,-1312 220.6794,-1306 226.6794,-1300 232.6794,-1300"/>
<text text-anchor="middle" x="446.673" y="-1575.2" font-family="Times,serif" font-size="11.00" fill="#c0c0c0">DataFixtures</text>
</g>
<g id="clust5" class="cluster">
<title>cluster_\App\Form</title>
<path fill="none" stroke="#c0c0c0" d="M525.6667,-518C525.6667,-518 678.6667,-518 678.6667,-518 684.6667,-518 690.6667,-524 690.6667,-530 690.6667,-530 690.6667,-930 690.6667,-930 690.6667,-936 684.6667,-942 678.6667,-942 678.6667,-942 525.6667,-942 525.6667,-942 519.6667,-942 513.6667,-936 513.6667,-930 513.6667,-930 513.6667,-530 513.6667,-530 513.6667,-524 519.6667,-518 525.6667,-518"/>
<text text-anchor="middle" x="602.1667" y="-929.2" font-family="Times,serif" font-size="11.00" fill="#c0c0c0">Form</text>
</g>
<g id="clust6" class="cluster">
<title>cluster_\App\Form\DataTransformer</title>
<path fill="none" stroke="#c0c0c0" d="M533.6667,-842C533.6667,-842 670.6667,-842 670.6667,-842 676.6667,-842 682.6667,-848 682.6667,-854 682.6667,-854 682.6667,-902 682.6667,-902 682.6667,-908 676.6667,-914 670.6667,-914 670.6667,-914 533.6667,-914 533.6667,-914 527.6667,-914 521.6667,-908 521.6667,-902 521.6667,-902 521.6667,-854 521.6667,-854 521.6667,-848 527.6667,-842 533.6667,-842"/>
<text text-anchor="middle" x="602.1667" y="-901.2" font-family="Times,serif" font-size="11.00" fill="#c0c0c0">DataTransformer</text>
</g>
<g id="clust7" class="cluster">
<title>cluster_\App\Repository</title>
<path fill="none" stroke="#c0c0c0" d="M537.1667,-1596C537.1667,-1596 667.1667,-1596 667.1667,-1596 673.1667,-1596 679.1667,-1602 679.1667,-1608 679.1667,-1608 679.1667,-1872 679.1667,-1872 679.1667,-1878 673.1667,-1884 667.1667,-1884 667.1667,-1884 537.1667,-1884 537.1667,-1884 531.1667,-1884 525.1667,-1878 525.1667,-1872 525.1667,-1872 525.1667,-1608 525.1667,-1608 525.1667,-1602 531.1667,-1596 537.1667,-1596"/>
<text text-anchor="middle" x="602.1667" y="-1871.2" font-family="Times,serif" font-size="11.00" fill="#c0c0c0">Repository</text>
</g>
<g id="clust8" class="cluster">
<title>cluster_\App\Security</title>
<path fill="none" stroke="#c0c0c0" d="M552.6667,-1892C552.6667,-1892 651.6667,-1892 651.6667,-1892 657.6667,-1892 663.6667,-1898 663.6667,-1904 663.6667,-1904 663.6667,-1988 663.6667,-1988 663.6667,-1994 657.6667,-2000 651.6667,-2000 651.6667,-2000 552.6667,-2000 552.6667,-2000 546.6667,-2000 540.6667,-1994 540.6667,-1988 540.6667,-1988 540.6667,-1904 540.6667,-1904 540.6667,-1898 546.6667,-1892 552.6667,-1892"/>
<text text-anchor="middle" x="602.1667" y="-1987.2" font-family="Times,serif" font-size="11.00" fill="#c0c0c0">Security</text>
</g>
<g id="clust9" class="cluster">
<title>cluster_\App\Security\Voter</title>
<path fill="none" stroke="#c0c0c0" d="M560.6667,-1900C560.6667,-1900 643.6667,-1900 643.6667,-1900 649.6667,-1900 655.6667,-1906 655.6667,-1912 655.6667,-1912 655.6667,-1960 655.6667,-1960 655.6667,-1966 649.6667,-1972 643.6667,-1972 643.6667,-1972 560.6667,-1972 560.6667,-1972 554.6667,-1972 548.6667,-1966 548.6667,-1960 548.6667,-1960 548.6667,-1912 548.6667,-1912 548.6667,-1906 554.6667,-1900 560.6667,-1900"/>
<text text-anchor="middle" x="602.1667" y="-1959.2" font-family="Times,serif" font-size="11.00" fill="#c0c0c0">Voter</text>
</g>
<g id="clust10" class="cluster">
<title>cluster_\App\Service</title>
<path fill="none" stroke="#c0c0c0" d="M547.1667,-276C547.1667,-276 657.1667,-276 657.1667,-276 663.1667,-276 669.1667,-282 669.1667,-288 669.1667,-288 669.1667,-498 669.1667,-498 669.1667,-504 663.1667,-510 657.1667,-510 657.1667,-510 547.1667,-510 547.1667,-510 541.1667,-510 535.1667,-504 535.1667,-498 535.1667,-498 535.1667,-288 535.1667,-288 535.1667,-282 541.1667,-276 547.1667,-276"/>
<text text-anchor="middle" x="602.1667" y="-497.2" font-family="Times,serif" font-size="11.00" fill="#c0c0c0">Service</text>
</g>
<g id="clust11" class="cluster">
<title>cluster_Global\Symfony</title>
<path fill="none" stroke="#c0c0c0" d="M232.9325,-2224C232.9325,-2224 376.4262,-2224 376.4262,-2224 382.4262,-2224 388.4262,-2230 388.4262,-2236 388.4262,-2236 388.4262,-2464 388.4262,-2464 388.4262,-2470 382.4262,-2476 376.4262,-2476 376.4262,-2476 232.9325,-2476 232.9325,-2476 226.9325,-2476 220.9325,-2470 220.9325,-2464 220.9325,-2464 220.9325,-2236 220.9325,-2236 220.9325,-2230 226.9325,-2224 232.9325,-2224"/>
<text text-anchor="middle" x="304.6794" y="-2463.2" font-family="Times,serif" font-size="11.00" fill="#c0c0c0">Symfony</text>
</g>
<g id="clust12" class="cluster">
<title>cluster_Global\Symfony\Component</title>
<path fill="none" stroke="#c0c0c0" d="M240.9325,-2232C240.9325,-2232 368.4262,-2232 368.4262,-2232 374.4262,-2232 380.4262,-2238 380.4262,-2244 380.4262,-2244 380.4262,-2436 380.4262,-2436 380.4262,-2442 374.4262,-2448 368.4262,-2448 368.4262,-2448 240.9325,-2448 240.9325,-2448 234.9325,-2448 228.9325,-2442 228.9325,-2436 228.9325,-2436 228.9325,-2244 228.9325,-2244 228.9325,-2238 234.9325,-2232 240.9325,-2232"/>
<text text-anchor="middle" x="304.6794" y="-2435.2" font-family="Times,serif" font-size="11.00" fill="#c0c0c0">Component</text>
</g>
<g id="clust13" class="cluster">
<title>cluster_Global\Symfony\Component\Security</title>
<path fill="none" stroke="#c0c0c0" d="M248.9325,-2240C248.9325,-2240 360.4262,-2240 360.4262,-2240 366.4262,-2240 372.4262,-2246 372.4262,-2252 372.4262,-2252 372.4262,-2408 372.4262,-2408 372.4262,-2414 366.4262,-2420 360.4262,-2420 360.4262,-2420 248.9325,-2420 248.9325,-2420 242.9325,-2420 236.9325,-2414 236.9325,-2408 236.9325,-2408 236.9325,-2252 236.9325,-2252 236.9325,-2246 242.9325,-2240 248.9325,-2240"/>
<text text-anchor="middle" x="304.6794" y="-2407.2" font-family="Times,serif" font-size="11.00" fill="#c0c0c0">Security</text>
</g>
<g id="clust14" class="cluster">
<title>cluster_Global\Symfony\Component\Security\Core</title>
<path fill="none" stroke="#c0c0c0" d="M256.9325,-2248C256.9325,-2248 352.4262,-2248 352.4262,-2248 358.4262,-2248 364.4262,-2254 364.4262,-2260 364.4262,-2260 364.4262,-2380 364.4262,-2380 364.4262,-2386 358.4262,-2392 352.4262,-2392 352.4262,-2392 256.9325,-2392 256.9325,-2392 250.9325,-2392 244.9325,-2386 244.9325,-2380 244.9325,-2380 244.9325,-2260 244.9325,-2260 244.9325,-2254 250.9325,-2248 256.9325,-2248"/>
<text text-anchor="middle" x="304.6794" y="-2379.2" font-family="Times,serif" font-size="11.00" fill="#c0c0c0">Core</text>
</g>
<g id="clust15" class="cluster">
<title>cluster_Global\Symfony\Component\Security\Core\Authorization</title>
<path fill="none" stroke="#c0c0c0" d="M264.9325,-2256C264.9325,-2256 344.4262,-2256 344.4262,-2256 350.4262,-2256 356.4262,-2262 356.4262,-2268 356.4262,-2268 356.4262,-2352 356.4262,-2352 356.4262,-2358 350.4262,-2364 344.4262,-2364 344.4262,-2364 264.9325,-2364 264.9325,-2364 258.9325,-2364 252.9325,-2358 252.9325,-2352 252.9325,-2352 252.9325,-2268 252.9325,-2268 252.9325,-2262 258.9325,-2256 264.9325,-2256"/>
<text text-anchor="middle" x="304.6794" y="-2351.2" font-family="Times,serif" font-size="11.00" fill="#c0c0c0">Authorization</text>
</g>
<g id="clust16" class="cluster">
<title>cluster_Global\Symfony\Component\Security\Core\Authorization\Voter</title>
<path fill="none" stroke="#c0c0c0" d="M272.9325,-2264C272.9325,-2264 336.4262,-2264 336.4262,-2264 342.4262,-2264 348.4262,-2270 348.4262,-2276 348.4262,-2276 348.4262,-2324 348.4262,-2324 348.4262,-2330 342.4262,-2336 336.4262,-2336 336.4262,-2336 272.9325,-2336 272.9325,-2336 266.9325,-2336 260.9325,-2330 260.9325,-2324 260.9325,-2324 260.9325,-2276 260.9325,-2276 260.9325,-2270 266.9325,-2264 272.9325,-2264"/>
<text text-anchor="middle" x="304.6794" y="-2323.2" font-family="Times,serif" font-size="11.00" fill="#c0c0c0">Voter</text>
</g>
<g id="clust17" class="cluster">
<title>cluster_Global\Doctrine</title>
<path fill="none" stroke="#c0c0c0" d="M159.8904,-2036C159.8904,-2036 449.4683,-2036 449.4683,-2036 455.4683,-2036 461.4683,-2042 461.4683,-2048 461.4683,-2048 461.4683,-2204 461.4683,-2204 461.4683,-2210 455.4683,-2216 449.4683,-2216 449.4683,-2216 159.8904,-2216 159.8904,-2216 153.8904,-2216 147.8904,-2210 147.8904,-2204 147.8904,-2204 147.8904,-2048 147.8904,-2048 147.8904,-2042 153.8904,-2036 159.8904,-2036"/>
<text text-anchor="middle" x="304.6794" y="-2203.2" font-family="Times,serif" font-size="11.00" fill="#c0c0c0">Doctrine</text>
</g>
<g id="clust18" class="cluster">
<title>cluster_Global\Doctrine\Bundle</title>
<path fill="none" stroke="#c0c0c0" d="M167.8904,-2044C167.8904,-2044 441.4683,-2044 441.4683,-2044 447.4683,-2044 453.4683,-2050 453.4683,-2056 453.4683,-2056 453.4683,-2176 453.4683,-2176 453.4683,-2182 447.4683,-2188 441.4683,-2188 441.4683,-2188 167.8904,-2188 167.8904,-2188 161.8904,-2188 155.8904,-2182 155.8904,-2176 155.8904,-2176 155.8904,-2056 155.8904,-2056 155.8904,-2050 161.8904,-2044 167.8904,-2044"/>
<text text-anchor="middle" x="304.6794" y="-2175.2" font-family="Times,serif" font-size="11.00" fill="#c0c0c0">Bundle</text>
</g>
<g id="clust19" class="cluster">
<title>cluster_Global\Doctrine\Bundle\DoctrineBundle</title>
<path fill="none" stroke="#c0c0c0" d="M175.8904,-2052C175.8904,-2052 433.4683,-2052 433.4683,-2052 439.4683,-2052 445.4683,-2058 445.4683,-2064 445.4683,-2064 445.4683,-2148 445.4683,-2148 445.4683,-2154 439.4683,-2160 433.4683,-2160 433.4683,-2160 175.8904,-2160 175.8904,-2160 169.8904,-2160 163.8904,-2154 163.8904,-2148 163.8904,-2148 163.8904,-2064 163.8904,-2064 163.8904,-2058 169.8904,-2052 175.8904,-2052"/>
<text text-anchor="middle" x="304.6794" y="-2147.2" font-family="Times,serif" font-size="11.00" fill="#c0c0c0">DoctrineBundle</text>
</g>
<g id="clust20" class="cluster">
<title>cluster_Global\Doctrine\Bundle\DoctrineBundle\Repository</title>
<path fill="none" stroke="#c0c0c0" d="M183.8904,-2060C183.8904,-2060 425.4683,-2060 425.4683,-2060 431.4683,-2060 437.4683,-2066 437.4683,-2072 437.4683,-2072 437.4683,-2120 437.4683,-2120 437.4683,-2126 431.4683,-2132 425.4683,-2132 425.4683,-2132 183.8904,-2132 183.8904,-2132 177.8904,-2132 171.8904,-2126 171.8904,-2120 171.8904,-2120 171.8904,-2072 171.8904,-2072 171.8904,-2066 177.8904,-2060 183.8904,-2060"/>
<text text-anchor="middle" x="304.6794" y="-2119.2" font-family="Times,serif" font-size="11.00" fill="#c0c0c0">Repository</text>
</g>
<!-- \\App\\Controller\\AdvertController -->
<g id="node1" class="node">
<title>\\App\\Controller\\AdvertController</title>
<polygon fill="none" stroke="#000000" points="664.6667,-1156 539.6667,-1156 539.6667,-1120 664.6667,-1120 664.6667,-1156"/>
<text text-anchor="middle" x="602.1667" y="-1135.2" font-family="Courier,monospace" font-size="11.00" fill="#000000">AdvertController</text>
</g>
<!-- AbstractController -->
<g id="node32" class="node">
<title>AbstractController</title>
<ellipse fill="none" stroke="#000000" cx="304.6794" cy="-126" rx="98.5829" ry="18"/>
<text text-anchor="middle" x="304.6794" y="-122.3" font-family="Times,serif" font-size="14.00" fill="#000000">AbstractController</text>
</g>
<!-- \\App\\Controller\\AdvertController&#45;&gt;AbstractController -->
<g id="edge1" class="edge">
<title>\\App\\Controller\\AdvertController&#45;&gt;AbstractController</title>
<path fill="none" stroke="#000000" d="M539.5046,-1130.2375C528.7455,-1126.1264 518.7633,-1120.0203 511.6667,-1111 379.8522,-943.4558 603.0446,-312.3809 461.4683,-153 448.5813,-138.4923 430.9594,-129.9139 412.172,-125.103"/>
<polygon fill="none" stroke="#000000" points="412.779,-121.6529 402.2601,-122.9192 411.2728,-128.4889 412.779,-121.6529"/>
</g>
<!-- \\App\\Controller\\CategoryController -->
<g id="node2" class="node">
<title>\\App\\Controller\\CategoryController</title>
<polygon fill="none" stroke="#000000" points="671.1667,-1102 533.1667,-1102 533.1667,-1066 671.1667,-1066 671.1667,-1102"/>
<text text-anchor="middle" x="602.1667" y="-1081.2" font-family="Courier,monospace" font-size="11.00" fill="#000000">CategoryController</text>
</g>
<!-- \\App\\Controller\\CategoryController&#45;&gt;AbstractController -->
<g id="edge2" class="edge">
<title>\\App\\Controller\\CategoryController&#45;&gt;AbstractController</title>
<path fill="none" stroke="#000000" d="M532.7363,-1073.2946C524.6173,-1069.362 517.2537,-1064.0787 511.6667,-1057 387.0147,-899.0675 595.3213,-303.2137 461.4683,-153 448.5587,-138.5125 430.9266,-129.9431 412.1363,-125.1348"/>
<polygon fill="none" stroke="#000000" points="412.7422,-121.6845 402.2235,-122.9518 411.2367,-128.5207 412.7422,-121.6845"/>
</g>
<!-- \\App\\Controller\\RegistrationController -->
<g id="node3" class="node">
<title>\\App\\Controller\\RegistrationController</title>
<polygon fill="none" stroke="#000000" points="684.6667,-1048 519.6667,-1048 519.6667,-1012 684.6667,-1012 684.6667,-1048"/>
<text text-anchor="middle" x="602.1667" y="-1027.2" font-family="Courier,monospace" font-size="11.00" fill="#000000">RegistrationController</text>
</g>
<!-- \\App\\Controller\\RegistrationController&#45;&gt;AbstractController -->
<g id="edge3" class="edge">
<title>\\App\\Controller\\RegistrationController&#45;&gt;AbstractController</title>
<path fill="none" stroke="#000000" d="M520.6875,-1011.8709C517.3565,-1009.283 514.3137,-1006.3416 511.6667,-1003 394.1761,-854.678 587.5992,-294.0476 461.4683,-153 448.5332,-138.5352 430.8897,-129.9761 412.0961,-125.1707"/>
<polygon fill="none" stroke="#000000" points="412.7009,-121.7201 402.1823,-122.9886 411.1961,-128.5565 412.7009,-121.7201"/>
</g>
<!-- \\App\\Controller\\SecurityController -->
<g id="node4" class="node">
<title>\\App\\Controller\\SecurityController</title>
<polygon fill="none" stroke="#000000" points="671.1667,-994 533.1667,-994 533.1667,-958 671.1667,-958 671.1667,-994"/>
<text text-anchor="middle" x="602.1667" y="-973.2" font-family="Courier,monospace" font-size="11.00" fill="#000000">SecurityController</text>
</g>
<!-- \\App\\Controller\\SecurityController&#45;&gt;AbstractController -->
<g id="edge4" class="edge">
<title>\\App\\Controller\\SecurityController&#45;&gt;AbstractController</title>
<path fill="none" stroke="#000000" d="M557.1427,-957.9184C539.9471,-948.6326 522.0057,-935.5176 511.6667,-918 425.0726,-771.2829 575.4468,-279.6228 461.4683,-153 448.5647,-138.665 431.0351,-130.1413 412.3632,-125.3253"/>
<polygon fill="none" stroke="#000000" points="413.0349,-121.8892 402.5134,-123.1336 411.5144,-128.7221 413.0349,-121.8892"/>
</g>
<!-- \\App\\Controller\\TagController -->
<g id="node5" class="node">
<title>\\App\\Controller\\TagController</title>
<polygon fill="none" stroke="#000000" points="654.1667,-1264 550.1667,-1264 550.1667,-1228 654.1667,-1228 654.1667,-1264"/>
<text text-anchor="middle" x="602.1667" y="-1243.2" font-family="Courier,monospace" font-size="11.00" fill="#000000">TagController</text>
</g>
<!-- \\App\\Controller\\TagController&#45;&gt;AbstractController -->
<g id="edge5" class="edge">
<title>\\App\\Controller\\TagController&#45;&gt;AbstractController</title>
<path fill="none" stroke="#000000" d="M549.775,-1241.5814C535.2648,-1237.7082 520.9623,-1230.8799 511.6667,-1219 438.5957,-1125.6146 539.981,-241.8592 461.4683,-153 448.5419,-138.3701 430.8017,-129.7605 411.8911,-124.9621"/>
<polygon fill="none" stroke="#000000" points="412.4306,-121.4976 401.9148,-122.7885 410.9404,-128.3372 412.4306,-121.4976"/>
</g>
<!-- \\App\\Controller\\UserController -->
<g id="node6" class="node">
<title>\\App\\Controller\\UserController</title>
<polygon fill="none" stroke="#000000" points="657.6667,-1210 546.6667,-1210 546.6667,-1174 657.6667,-1174 657.6667,-1210"/>
<text text-anchor="middle" x="602.1667" y="-1189.2" font-family="Courier,monospace" font-size="11.00" fill="#000000">UserController</text>
</g>
<!-- \\App\\Controller\\UserController&#45;&gt;AbstractController -->
<g id="edge6" class="edge">
<title>\\App\\Controller\\UserController&#45;&gt;AbstractController</title>
<path fill="none" stroke="#000000" d="M546.487,-1186.6306C533.1357,-1182.6255 520.2688,-1175.9652 511.6667,-1165 442.1777,-1076.4215 536.1185,-237.2746 461.4683,-153 448.6015,-138.4744 430.9888,-129.8879 412.204,-125.0747"/>
<polygon fill="none" stroke="#000000" points="412.8118,-121.6247 402.2928,-122.8902 411.3051,-128.4606 412.8118,-121.6247"/>
</g>
<!-- \\App\\DataFixtures\\AbstractBaseFixtures -->
<g id="node7" class="node">
<title>\\App\\DataFixtures\\AbstractBaseFixtures</title>
<polygon fill="none" stroke="#000000" points="380.6794,-1452 228.6794,-1452 228.6794,-1416 380.6794,-1416 380.6794,-1452"/>
<text text-anchor="start" x="270.6794" y="-1437.2" font-family="Courier,monospace" font-size="11.00" fill="#000000">«abstract»</text>
<text text-anchor="start" x="236.6794" y="-1425.2" font-family="Courier,monospace" font-size="11.00" fill="#000000">AbstractBaseFixtures</text>
</g>
<!-- Fixture -->
<g id="node33" class="node">
<title>Fixture</title>
<ellipse fill="none" stroke="#000000" cx="44.846" cy="-1434" rx="44.6926" ry="18"/>
<text text-anchor="middle" x="44.846" y="-1430.3" font-family="Times,serif" font-size="14.00" fill="#000000">Fixture</text>
</g>
<!-- \\App\\DataFixtures\\AbstractBaseFixtures&#45;&gt;Fixture -->
<g id="edge7" class="edge">
<title>\\App\\DataFixtures\\AbstractBaseFixtures&#45;&gt;Fixture</title>
<path fill="none" stroke="#000000" d="M228.4764,-1434C187.2767,-1434 137.3298,-1434 99.9337,-1434"/>
<polygon fill="none" stroke="#000000" points="99.7366,-1430.5001 89.7366,-1434 99.7365,-1437.5001 99.7366,-1430.5001"/>
</g>
<!-- \\App\\DataFixtures\\AdvertFixtures -->
<g id="node8" class="node">
<title>\\App\\DataFixtures\\AdvertFixtures</title>
<polygon fill="none" stroke="#000000" points="657.6667,-1344 546.6667,-1344 546.6667,-1308 657.6667,-1308 657.6667,-1344"/>
<text text-anchor="middle" x="602.1667" y="-1323.2" font-family="Courier,monospace" font-size="11.00" fill="#000000">AdvertFixtures</text>
</g>
<!-- \\App\\DataFixtures\\AdvertFixtures&#45;&gt;\\App\\DataFixtures\\AbstractBaseFixtures -->
<g id="edge8" class="edge">
<title>\\App\\DataFixtures\\AdvertFixtures&#45;&gt;\\App\\DataFixtures\\AbstractBaseFixtures</title>
<path fill="none" stroke="#000000" d="M546.4158,-1341.84C534.8716,-1345.3416 522.8293,-1349.1582 511.6667,-1353 458.52,-1371.2915 398.8447,-1394.9898 357.2744,-1412.0211"/>
<polygon fill="none" stroke="#000000" points="355.8197,-1408.8348 347.9013,-1415.874 358.4811,-1415.3092 355.8197,-1408.8348"/>
</g>
<!-- DependentFixtureInterface -->
<g id="node34" class="node">
<title>DependentFixtureInterface</title>
<ellipse fill="none" stroke="#000000" cx="304.6794" cy="-180" rx="138.3755" ry="18"/>
<text text-anchor="middle" x="304.6794" y="-176.3" font-family="Times,serif" font-size="14.00" fill="#000000">DependentFixtureInterface</text>
</g>
<!-- \\App\\DataFixtures\\AdvertFixtures&#45;&gt;DependentFixtureInterface -->
<g id="edge9" class="edge">
<title>\\App\\DataFixtures\\AdvertFixtures&#45;&gt;DependentFixtureInterface</title>
<path fill="none" stroke="#000000" stroke-dasharray="1,5" d="M546.3459,-1318.7367C532.9948,-1314.2891 520.1633,-1307.2144 511.6667,-1296 438.5173,-1199.4532 541.6262,-297.812 461.4683,-207 456.0062,-200.8119 449.6829,-195.7006 442.7738,-191.499"/>
<polygon fill="none" stroke="#000000" points="444.1971,-188.2908 433.7299,-186.6509 440.8898,-194.4602 444.1971,-188.2908"/>
</g>
<!-- \\App\\DataFixtures\\CategoryFixtures -->
<g id="node9" class="node">
<title>\\App\\DataFixtures\\CategoryFixtures</title>
<polygon fill="none" stroke="#000000" points="664.6667,-1452 539.6667,-1452 539.6667,-1416 664.6667,-1416 664.6667,-1452"/>
<text text-anchor="middle" x="602.1667" y="-1431.2" font-family="Courier,monospace" font-size="11.00" fill="#000000">CategoryFixtures</text>
</g>
<!-- \\App\\DataFixtures\\CategoryFixtures&#45;&gt;\\App\\DataFixtures\\AbstractBaseFixtures -->
<g id="edge10" class="edge">
<title>\\App\\DataFixtures\\CategoryFixtures&#45;&gt;\\App\\DataFixtures\\AbstractBaseFixtures</title>
<path fill="none" stroke="#000000" d="M539.4408,-1434C496.3226,-1434 438.5114,-1434 391.0481,-1434"/>
<polygon fill="none" stroke="#000000" points="390.7772,-1430.5001 380.7772,-1434 390.7771,-1437.5001 390.7772,-1430.5001"/>
</g>
<!-- \\App\\DataFixtures\\StatusFixtures -->
<g id="node10" class="node">
<title>\\App\\DataFixtures\\StatusFixtures</title>
<polygon fill="none" stroke="#000000" points="657.6667,-1398 546.6667,-1398 546.6667,-1362 657.6667,-1362 657.6667,-1398"/>
<text text-anchor="middle" x="602.1667" y="-1377.2" font-family="Courier,monospace" font-size="11.00" fill="#000000">StatusFixtures</text>
</g>
<!-- \\App\\DataFixtures\\StatusFixtures&#45;&gt;\\App\\DataFixtures\\AbstractBaseFixtures -->
<g id="edge11" class="edge">
<title>\\App\\DataFixtures\\StatusFixtures&#45;&gt;\\App\\DataFixtures\\AbstractBaseFixtures</title>
<path fill="none" stroke="#000000" d="M546.5606,-1390.0936C502.731,-1398.0496 440.8478,-1409.2827 390.6477,-1418.395"/>
<polygon fill="none" stroke="#000000" points="389.9863,-1414.9578 380.7723,-1420.1876 391.2366,-1421.8452 389.9863,-1414.9578"/>
</g>
<!-- \\App\\DataFixtures\\TagFixtures -->
<g id="node11" class="node">
<title>\\App\\DataFixtures\\TagFixtures</title>
<polygon fill="none" stroke="#000000" points="647.6667,-1560 556.6667,-1560 556.6667,-1524 647.6667,-1524 647.6667,-1560"/>
<text text-anchor="middle" x="602.1667" y="-1539.2" font-family="Courier,monospace" font-size="11.00" fill="#000000">TagFixtures</text>
</g>
<!-- \\App\\DataFixtures\\TagFixtures&#45;&gt;\\App\\DataFixtures\\AbstractBaseFixtures -->
<g id="edge12" class="edge">
<title>\\App\\DataFixtures\\TagFixtures&#45;&gt;\\App\\DataFixtures\\AbstractBaseFixtures</title>
<path fill="none" stroke="#000000" d="M556.3557,-1529.1363C541.9711,-1524.8825 526.085,-1519.9624 511.6667,-1515 458.52,-1496.7085 398.8447,-1473.0102 357.2744,-1455.9789"/>
<polygon fill="none" stroke="#000000" points="358.4811,-1452.6908 347.9013,-1452.126 355.8197,-1459.1652 358.4811,-1452.6908"/>
</g>
<!-- \\App\\DataFixtures\\UserFixtures -->
<g id="node12" class="node">
<title>\\App\\DataFixtures\\UserFixtures</title>
<polygon fill="none" stroke="#000000" points="651.1667,-1506 553.1667,-1506 553.1667,-1470 651.1667,-1470 651.1667,-1506"/>
<text text-anchor="middle" x="602.1667" y="-1485.2" font-family="Courier,monospace" font-size="11.00" fill="#000000">UserFixtures</text>
</g>
<!-- \\App\\DataFixtures\\UserFixtures&#45;&gt;\\App\\DataFixtures\\AbstractBaseFixtures -->
<g id="edge13" class="edge">
<title>\\App\\DataFixtures\\UserFixtures&#45;&gt;\\App\\DataFixtures\\AbstractBaseFixtures</title>
<path fill="none" stroke="#000000" d="M553.0427,-1479.083C509.0122,-1471.0906 443.4279,-1459.1857 390.7098,-1449.6163"/>
<polygon fill="none" stroke="#000000" points="391.1507,-1446.1392 380.6864,-1447.7968 389.9005,-1453.0266 391.1507,-1446.1392"/>
</g>
<!-- \\App\\Form\\DataTransformer\\TagsDataTransformer -->
<g id="node13" class="node">
<title>\\App\\Form\\DataTransformer\\TagsDataTransformer</title>
<polygon fill="none" stroke="#000000" points="674.6667,-886 529.6667,-886 529.6667,-850 674.6667,-850 674.6667,-886"/>
<text text-anchor="middle" x="602.1667" y="-865.2" font-family="Courier,monospace" font-size="11.00" fill="#000000">TagsDataTransformer</text>
</g>
<!-- DataTransformerInterface -->
<g id="node36" class="node">
<title>DataTransformerInterface</title>
<ellipse fill="none" stroke="#000000" cx="304.6794" cy="-72" rx="133.7763" ry="18"/>
<text text-anchor="middle" x="304.6794" y="-68.3" font-family="Times,serif" font-size="14.00" fill="#000000">DataTransformerInterface</text>
</g>
<!-- \\App\\Form\\DataTransformer\\TagsDataTransformer&#45;&gt;DataTransformerInterface -->
<g id="edge17" class="edge">
<title>\\App\\Form\\DataTransformer\\TagsDataTransformer&#45;&gt;DataTransformerInterface</title>
<path fill="none" stroke="#000000" stroke-dasharray="1,5" d="M529.484,-859.5776C522.7083,-856.2346 516.5608,-851.8139 511.6667,-846 404.5218,-718.7191 572.8739,-222.5687 461.4683,-99 455.4862,-92.3648 448.513,-86.9753 440.8946,-82.6226"/>
<polygon fill="none" stroke="#000000" points="442.1808,-79.3515 431.6755,-77.9765 439.0305,-85.6025 442.1808,-79.3515"/>
</g>
<!-- \\App\\Form\\AdvertType -->
<g id="node14" class="node">
<title>\\App\\Form\\AdvertType</title>
<polygon fill="none" stroke="#000000" points="644.1667,-616 560.1667,-616 560.1667,-580 644.1667,-580 644.1667,-616"/>
<text text-anchor="middle" x="602.1667" y="-595.2" font-family="Courier,monospace" font-size="11.00" fill="#000000">AdvertType</text>
</g>
<!-- AbstractType -->
<g id="node35" class="node">
<title>AbstractType</title>
<ellipse fill="none" stroke="#000000" cx="304.6794" cy="-18" rx="74.187" ry="18"/>
<text text-anchor="middle" x="304.6794" y="-14.3" font-family="Times,serif" font-size="14.00" fill="#000000">AbstractType</text>
</g>
<!-- \\App\\Form\\AdvertType&#45;&gt;AbstractType -->
<g id="edge14" class="edge">
<title>\\App\\Form\\AdvertType&#45;&gt;AbstractType</title>
<path fill="none" stroke="#000000" d="M560.0119,-595.5358C542.4433,-592.2508 523.4316,-585.3129 511.6667,-571 437.1054,-480.2913 541.3089,-131.0984 461.4683,-45 442.2324,-24.2564 413.2915,-15.7894 385.4904,-13.0959"/>
<polygon fill="none" stroke="#000000" points="385.548,-9.5909 375.3195,-12.3528 385.0379,-16.5723 385.548,-9.5909"/>
</g>
<!-- \\App\\Form\\CategoryType -->
<g id="node15" class="node">
<title>\\App\\Form\\CategoryType</title>
<polygon fill="none" stroke="#000000" points="651.1667,-562 553.1667,-562 553.1667,-526 651.1667,-526 651.1667,-562"/>
<text text-anchor="middle" x="602.1667" y="-541.2" font-family="Courier,monospace" font-size="11.00" fill="#000000">CategoryType</text>
</g>
<!-- \\App\\Form\\CategoryType&#45;&gt;AbstractType -->
<g id="edge15" class="edge">
<title>\\App\\Form\\CategoryType&#45;&gt;AbstractType</title>
<path fill="none" stroke="#000000" d="M552.9366,-538.2528C537.4988,-533.9828 521.8498,-526.627 511.6667,-514 380.0673,-350.8178 604.8912,-197.8944 461.4683,-45 442.1136,-24.3671 413.149,-15.9223 385.3622,-13.2155"/>
<polygon fill="none" stroke="#000000" points="385.4285,-9.711 375.1982,-12.466 384.9137,-16.6921 385.4285,-9.711"/>
</g>
<!-- \\App\\Form\\ChangePasswordType -->
<g id="node16" class="node">
<title>\\App\\Form\\ChangePasswordType</title>
<polygon fill="none" stroke="#000000" points="671.1667,-832 533.1667,-832 533.1667,-796 671.1667,-796 671.1667,-832"/>
<text text-anchor="middle" x="602.1667" y="-811.2" font-family="Courier,monospace" font-size="11.00" fill="#000000">ChangePasswordType</text>
</g>
<!-- \\App\\Form\\ChangePasswordType&#45;&gt;AbstractType -->
<g id="edge16" class="edge">
<title>\\App\\Form\\ChangePasswordType&#45;&gt;AbstractType</title>
<path fill="none" stroke="#000000" d="M532.8151,-803.232C524.6843,-799.3088 517.2963,-794.0448 511.6667,-787 408.4951,-657.8938 572.1593,-167.7204 461.4683,-45 442.3556,-23.8103 413.134,-15.3261 385.0755,-12.7434"/>
<polygon fill="none" stroke="#000000" points="385.0258,-9.2321 374.8116,-12.0463 384.5515,-16.216 385.0258,-9.2321"/>
</g>
<!-- \\App\\Form\\RegistrationFormType -->
<g id="node17" class="node">
<title>\\App\\Form\\RegistrationFormType</title>
<polygon fill="none" stroke="#000000" points="678.1667,-778 526.1667,-778 526.1667,-742 678.1667,-742 678.1667,-778"/>
<text text-anchor="middle" x="602.1667" y="-757.2" font-family="Courier,monospace" font-size="11.00" fill="#000000">RegistrationFormType</text>
</g>
<!-- \\App\\Form\\RegistrationFormType&#45;&gt;AbstractType -->
<g id="edge18" class="edge">
<title>\\App\\Form\\RegistrationFormType&#45;&gt;AbstractType</title>
<path fill="none" stroke="#000000" d="M525.9611,-745.4341C520.557,-742.0775 515.6718,-737.9848 511.6667,-733 415.6519,-613.4985 564.4421,-158.5599 461.4683,-45 442.2997,-23.8608 413.0673,-15.3864 385.0158,-12.7974"/>
<polygon fill="none" stroke="#000000" points="384.9704,-9.2862 374.7553,-12.0973 384.4938,-16.27 384.9704,-9.2862"/>
</g>
<!-- \\App\\Form\\TagType -->
<g id="node18" class="node">
<title>\\App\\Form\\TagType</title>
<polygon fill="none" stroke="#000000" points="634.1667,-724 570.1667,-724 570.1667,-688 634.1667,-688 634.1667,-724"/>
<text text-anchor="middle" x="602.1667" y="-703.2" font-family="Courier,monospace" font-size="11.00" fill="#000000">TagType</text>
</g>
<!-- \\App\\Form\\TagType&#45;&gt;AbstractType -->
<g id="edge19" class="edge">
<title>\\App\\Form\\TagType&#45;&gt;AbstractType</title>
<path fill="none" stroke="#000000" d="M569.9523,-705.1422C549.99,-702.7795 525.5838,-696.2123 511.6667,-679 422.8064,-569.1002 556.7274,-149.4022 461.4683,-45 442.3174,-24.011 413.2415,-15.5303 385.3089,-12.8946"/>
<polygon fill="none" stroke="#000000" points="385.3112,-9.3862 375.0902,-12.1756 384.8199,-16.3689 385.3112,-9.3862"/>
</g>
<!-- \\App\\Form\\UserDataType -->
<g id="node19" class="node">
<title>\\App\\Form\\UserDataType</title>
<polygon fill="none" stroke="#000000" points="651.1667,-670 553.1667,-670 553.1667,-634 651.1667,-634 651.1667,-670"/>
<text text-anchor="middle" x="602.1667" y="-649.2" font-family="Courier,monospace" font-size="11.00" fill="#000000">UserDataType</text>
</g>
<!-- \\App\\Form\\UserDataType&#45;&gt;AbstractType -->
<g id="edge20" class="edge">
<title>\\App\\Form\\UserDataType&#45;&gt;AbstractType</title>
<path fill="none" stroke="#000000" d="M552.897,-648.0771C537.456,-644.3343 521.8151,-637.4578 511.6667,-625 429.9579,-524.6981 549.016,-140.248 461.4683,-45 442.2407,-24.0813 413.1497,-15.6144 385.2266,-12.97"/>
<polygon fill="none" stroke="#000000" points="385.2346,-9.4619 375.0124,-12.2469 384.7402,-16.4444 385.2346,-9.4619"/>
</g>
<!-- \\App\\Repository\\AdvertRepository -->
<g id="node20" class="node">
<title>\\App\\Repository\\AdvertRepository</title>
<polygon fill="none" stroke="#000000" points="664.6667,-1748 539.6667,-1748 539.6667,-1712 664.6667,-1712 664.6667,-1748"/>
<text text-anchor="middle" x="602.1667" y="-1727.2" font-family="Courier,monospace" font-size="11.00" fill="#000000">AdvertRepository</text>
</g>
<!-- ServiceEntityRepository -->
<g id="node31" class="node">
<title>ServiceEntityRepository</title>
<ellipse fill="none" stroke="#000000" cx="304.6794" cy="-2086" rx="124.5782" ry="18"/>
<text text-anchor="middle" x="304.6794" y="-2082.3" font-family="Times,serif" font-size="14.00" fill="#c0c0c0">ServiceEntityRepository</text>
</g>
<!-- \\App\\Repository\\AdvertRepository&#45;&gt;ServiceEntityRepository -->
<g id="edge21" class="edge">
<title>\\App\\Repository\\AdvertRepository&#45;&gt;ServiceEntityRepository</title>
<path fill="none" stroke="#000000" d="M539.4377,-1742.2459C529.5505,-1745.9442 519.8925,-1750.7521 511.6667,-1757 403.7489,-1838.9681 337.7708,-1994.792 314.342,-2058.1581"/>
<polygon fill="none" stroke="#000000" points="310.9452,-2057.2584 310.8249,-2067.8526 317.5256,-2059.6458 310.9452,-2057.2584"/>
</g>
<!-- \\App\\Repository\\CategoryRepository -->
<g id="node21" class="node">
<title>\\App\\Repository\\CategoryRepository</title>
<polygon fill="none" stroke="#000000" points="671.1667,-1694 533.1667,-1694 533.1667,-1658 671.1667,-1658 671.1667,-1694"/>
<text text-anchor="middle" x="602.1667" y="-1673.2" font-family="Courier,monospace" font-size="11.00" fill="#000000">CategoryRepository</text>
</g>
<!-- \\App\\Repository\\CategoryRepository&#45;&gt;ServiceEntityRepository -->
<g id="edge22" class="edge">
<title>\\App\\Repository\\CategoryRepository&#45;&gt;ServiceEntityRepository</title>
<path fill="none" stroke="#000000" d="M533.0317,-1690.2662C525.3562,-1693.6469 518.0277,-1697.8284 511.6667,-1703 391.4566,-1800.7333 331.0477,-1987.5029 311.7431,-2058.0695"/>
<polygon fill="none" stroke="#000000" points="308.2923,-2057.426 309.0925,-2067.9906 315.0551,-2059.2328 308.2923,-2057.426"/>
</g>
<!-- \\App\\Repository\\TagRepository -->
<g id="node22" class="node">
<title>\\App\\Repository\\TagRepository</title>
<polygon fill="none" stroke="#000000" points="654.1667,-1856 550.1667,-1856 550.1667,-1820 654.1667,-1820 654.1667,-1856"/>
<text text-anchor="middle" x="602.1667" y="-1835.2" font-family="Courier,monospace" font-size="11.00" fill="#000000">TagRepository</text>
</g>
<!-- \\App\\Repository\\TagRepository&#45;&gt;ServiceEntityRepository -->
<g id="edge23" class="edge">
<title>\\App\\Repository\\TagRepository&#45;&gt;ServiceEntityRepository</title>
<path fill="none" stroke="#000000" d="M571.1102,-1856.0686C553.2163,-1866.9248 530.5913,-1881.4248 511.6667,-1896 441.6719,-1949.908 367.1126,-2022.6401 329.4827,-2060.5775"/>
<polygon fill="none" stroke="#000000" points="326.5649,-2058.551 322.0284,-2068.1255 331.5455,-2063.4698 326.5649,-2058.551"/>
</g>
<!-- \\App\\Repository\\UserDataRepository -->
<g id="node23" class="node">
<title>\\App\\Repository\\UserDataRepository</title>
<polygon fill="none" stroke="#000000" points="671.1667,-1802 533.1667,-1802 533.1667,-1766 671.1667,-1766 671.1667,-1802"/>
<text text-anchor="middle" x="602.1667" y="-1781.2" font-family="Courier,monospace" font-size="11.00" fill="#000000">UserDataRepository</text>
</g>
<!-- \\App\\Repository\\UserDataRepository&#45;&gt;ServiceEntityRepository -->
<g id="edge24" class="edge">
<title>\\App\\Repository\\UserDataRepository&#45;&gt;ServiceEntityRepository</title>
<path fill="none" stroke="#000000" d="M532.814,-1799.6079C525.3472,-1802.7479 518.1275,-1806.5059 511.6667,-1811 415.6424,-1877.7933 345.4463,-2003.2255 317.7226,-2058.5697"/>
<polygon fill="none" stroke="#000000" points="314.4777,-2057.2361 313.1918,-2067.7526 320.7552,-2060.3334 314.4777,-2057.2361"/>
</g>
<!-- \\App\\Repository\\UserRepository -->
<g id="node24" class="node">
<title>\\App\\Repository\\UserRepository</title>
<polygon fill="none" stroke="#000000" points="657.6667,-1640 546.6667,-1640 546.6667,-1604 657.6667,-1604 657.6667,-1640"/>
<text text-anchor="middle" x="602.1667" y="-1619.2" font-family="Courier,monospace" font-size="11.00" fill="#000000">UserRepository</text>
</g>
<!-- \\App\\Repository\\UserRepository&#45;&gt;ServiceEntityRepository -->
<g id="edge25" class="edge">
<title>\\App\\Repository\\UserRepository&#45;&gt;ServiceEntityRepository</title>
<path fill="none" stroke="#000000" d="M546.2998,-1630.7761C533.8778,-1634.7645 521.4965,-1640.5648 511.6667,-1649 379.0234,-1762.8242 325.2238,-1980.5628 309.7592,-2057.8954"/>
<polygon fill="none" stroke="#000000" points="306.2966,-2057.3665 307.8272,-2067.8501 313.1684,-2058.7001 306.2966,-2057.3665"/>
</g>
<!-- PasswordUpgraderInterface -->
<g id="node37" class="node">
<title>PasswordUpgraderInterface</title>
<ellipse fill="none" stroke="#000000" cx="304.6794" cy="-234" rx="142.9746" ry="18"/>
<text text-anchor="middle" x="304.6794" y="-230.3" font-family="Times,serif" font-size="14.00" fill="#000000">PasswordUpgraderInterface</text>
</g>
<!-- \\App\\Repository\\UserRepository&#45;&gt;PasswordUpgraderInterface -->
<g id="edge26" class="edge">
<title>\\App\\Repository\\UserRepository&#45;&gt;PasswordUpgraderInterface</title>
<path fill="none" stroke="#000000" stroke-dasharray="1,5" d="M546.6482,-1613.9601C533.4608,-1609.5083 520.6344,-1602.6257 511.6667,-1592 500.4212,-1578.6754 336.8605,-455.5471 308.7706,-262.1873"/>
<polygon fill="none" stroke="#000000" points="312.2257,-261.6245 307.3247,-252.2314 305.2984,-262.6306 312.2257,-261.6245"/>
</g>
<!-- \\App\\Security\\Voter\\AdvertVoter -->
<g id="node25" class="node">
<title>\\App\\Security\\Voter\\AdvertVoter</title>
<polygon fill="none" stroke="#000000" points="647.6667,-1944 556.6667,-1944 556.6667,-1908 647.6667,-1908 647.6667,-1944"/>
<text text-anchor="middle" x="602.1667" y="-1923.2" font-family="Courier,monospace" font-size="11.00" fill="#000000">AdvertVoter</text>
</g>
<!-- Voter -->
<g id="node30" class="node">
<title>Voter</title>
<ellipse fill="none" stroke="#000000" cx="304.6794" cy="-2290" rx="35.9954" ry="18"/>
<text text-anchor="middle" x="304.6794" y="-2286.3" font-family="Times,serif" font-size="14.00" fill="#c0c0c0">Voter</text>
</g>
<!-- \\App\\Security\\Voter\\AdvertVoter&#45;&gt;Voter -->
<g id="edge27" class="edge">
<title>\\App\\Security\\Voter\\AdvertVoter&#45;&gt;Voter</title>
<path fill="none" stroke="#000000" d="M591.8189,-1944.0019C569.9523,-1981.4172 516.5145,-2069.621 461.4683,-2136 419.4818,-2186.6305 362.9439,-2238.906 330.492,-2267.6516"/>
<polygon fill="none" stroke="#000000" points="327.977,-2265.2026 322.784,-2274.4375 332.6025,-2270.4566 327.977,-2265.2026"/>
</g>
<!-- \\App\\Service\\AdvertService -->
<g id="node26" class="node">
<title>\\App\\Service\\AdvertService</title>
<polygon fill="none" stroke="#000000" points="654.1667,-482 550.1667,-482 550.1667,-446 654.1667,-446 654.1667,-482"/>
<text text-anchor="middle" x="602.1667" y="-461.2" font-family="Courier,monospace" font-size="11.00" fill="#000000">AdvertService</text>
</g>
<!-- \\App\\Service\\StatusService -->
<g id="node27" class="node">
<title>\\App\\Service\\StatusService</title>
<polygon fill="none" stroke="#000000" points="654.1667,-428 550.1667,-428 550.1667,-392 654.1667,-392 654.1667,-428"/>
<text text-anchor="middle" x="602.1667" y="-407.2" font-family="Courier,monospace" font-size="11.00" fill="#000000">StatusService</text>
</g>
<!-- \\App\\Service\\UserDataService -->
<g id="node28" class="node">
<title>\\App\\Service\\UserDataService</title>
<polygon fill="none" stroke="#000000" points="661.1667,-374 543.1667,-374 543.1667,-338 661.1667,-338 661.1667,-374"/>
<text text-anchor="middle" x="602.1667" y="-353.2" font-family="Courier,monospace" font-size="11.00" fill="#000000">UserDataService</text>
</g>
<!-- \\App\\Service\\UserService -->
<g id="node29" class="node">
<title>\\App\\Service\\UserService</title>
<polygon fill="none" stroke="#000000" points="647.6667,-320 556.6667,-320 556.6667,-284 647.6667,-284 647.6667,-320"/>
<text text-anchor="middle" x="602.1667" y="-299.2" font-family="Courier,monospace" font-size="11.00" fill="#000000">UserService</text>
</g>
</g>
</svg>
